<?xml version="1.0" standalone="no"?>
<!DOCTYPE svg PUBLIC "-//W3C//DTD SVG 20010904//EN"
 "http://www.w3.org/TR/2001/REC-SVG-20010904/DTD/svg10.dtd">
<svg version="1.0" xmlns="http://www.w3.org/2000/svg"
 width="330.000000pt" height="330.000000pt" viewBox="0 0 330.000000 330.000000"
 preserveAspectRatio="xMidYMid meet">

<g transform="translate(0.000000,330.000000) scale(0.100000,-0.100000)"
fill="#000000" stroke="none">
<path d="M1535 3130 c-625 -71 -1136 -548 -1265 -1181 -11 -53 -20 -110 -20
-125 0 -28 0 -28 19 -9 11 12 25 55 35 110 110 584 571 1049 1140 1152 126 23
363 22 480 -1 272 -53 509 -175 707 -363 325 -310 492 -758 449 -1207 -10
-111 -10 -130 3 -143 13 -13 15 -10 21 22 29 154 23 416 -13 581 -145 665
-699 1142 -1356 1168 -66 3 -156 1 -200 -4z"/>
<path d="M1575 2995 c-42 -41 -28 -84 36 -114 22 -10 34 -23 34 -36 0 -27 -32
-32 -40 -6 -9 29 -55 29 -55 1 0 -29 44 -70 75 -70 37 0 75 42 75 83 0 38 -20
61 -68 78 -18 6 -32 17 -32 25 0 19 36 18 44 -1 3 -8 17 -15 30 -15 23 0 24 2
14 30 -18 54 -73 66 -113 25z"/>
<path d="M1780 2990 c-30 -30 -26 -73 11 -104 17 -14 35 -26 40 -26 6 0 9 -10
7 -22 -3 -26 -38 -38 -38 -14 0 18 -36 40 -50 31 -15 -9 -1 -57 22 -77 39 -35
97 -17 117 35 14 37 -1 71 -43 99 -20 13 -36 29 -36 36 0 20 37 14 43 -8 3
-12 14 -20 26 -20 31 0 28 43 -5 69 -34 26 -68 27 -94 1z"/>
<path d="M1380 2983 c-50 -19 -60 -56 -39 -153 14 -66 42 -93 88 -86 47 7 71
32 71 74 0 27 -3 33 -16 28 -9 -3 -20 -6 -25 -6 -5 0 -9 -6 -9 -14 0 -19 -23
-36 -38 -27 -14 8 -32 64 -32 99 0 29 29 41 45 19 13 -18 55 -12 55 8 0 36
-63 72 -100 58z"/>
<path d="M2156 2881 c-9 -10 -33 -54 -51 -97 -32 -73 -33 -80 -18 -92 10 -7
21 -11 26 -9 5 1 23 36 41 77 24 57 37 76 54 78 29 4 28 -8 -10 -101 -23 -57
-29 -80 -21 -88 7 -7 18 -9 26 -6 18 7 77 149 77 186 0 58 -86 94 -124 52z"/>
<path d="M976 2807 c-22 -16 -25 -7 43 -130 l54 -97 46 26 c70 40 79 51 60 70
-14 14 -19 13 -51 -5 l-34 -21 -48 85 c-26 47 -49 85 -50 85 -1 0 -10 -6 -20
-13z"/>
<path d="M2341 2763 c-15 -16 -40 -49 -55 -76 -26 -43 -27 -50 -15 -78 16 -39
67 -64 101 -48 30 13 98 118 98 150 -1 28 -16 51 -47 67 -33 18 -52 15 -82
-15z m73 -45 c7 -12 3 -26 -18 -58 -31 -47 -50 -58 -71 -40 -17 14 -10 31 32
88 26 34 40 37 57 10z"/>
<path d="M821 2684 c-12 -15 -21 -31 -21 -35 0 -5 -7 -9 -15 -9 -27 0 -55 -38
-55 -74 0 -28 12 -48 62 -106 62 -71 73 -77 92 -48 7 13 -3 29 -47 79 -58 63
-67 82 -45 95 7 5 36 -18 75 -61 63 -67 64 -68 83 -49 19 19 18 20 -41 87 -38
42 -59 73 -55 82 10 28 35 15 92 -50 54 -61 59 -64 76 -49 21 20 19 26 -54
103 -49 52 -63 61 -92 61 -25 0 -40 -7 -55 -26z"/>
<path d="M1513 2686 c-155 -30 -315 -100 -430 -189 -58 -45 -163 -148 -202
-199 -31 -39 -111 -171 -111 -181 0 -21 104 8 220 63 69 32 157 67 196 78 56
15 84 29 135 72 82 68 241 173 314 206 180 83 331 67 408 -42 35 -50 45 -91
53 -224 3 -58 10 -120 16 -138 13 -45 112 -145 173 -175 57 -28 239 -88 333
-110 l62 -14 0 26 c0 48 -75 245 -125 330 -145 242 -375 417 -635 481 -110 27
-307 35 -407 16z"/>
<path d="M2503 2628 c-28 -29 -64 -69 -81 -89 l-31 -36 37 -36 c27 -26 47 -37
67 -37 37 0 43 4 94 63 55 64 55 99 2 151 l-38 37 -50 -53z m71 -45 c4 -10 -4
-29 -22 -51 -39 -49 -57 -59 -77 -42 -14 12 -11 18 32 62 52 53 58 56 67 31z"/>
<path d="M1804 2505 c-111 -30 -266 -121 -399 -232 l-60 -50 -28 -114 c-32
-135 -55 -244 -98 -471 l-31 -167 16 -93 c29 -168 37 -172 386 -165 339 7 661
46 1055 127 169 35 214 57 249 125 28 53 29 168 3 208 -25 39 -61 54 -214 88
-250 56 -453 136 -506 198 -14 17 -34 31 -45 31 -10 0 -48 -19 -83 -41 -35
-23 -79 -48 -96 -56 -29 -12 -33 -11 -33 2 0 19 -11 19 -56 -2 -34 -17 -36
-17 -50 1 -8 11 -11 29 -8 43 7 27 3 28 -36 8 -29 -15 -30 -15 -30 10 0 14 7
41 14 60 13 31 13 35 0 35 -21 0 -18 56 6 94 10 18 36 41 57 53 42 23 149 54
157 45 16 -15 1 -31 -39 -42 -51 -14 -135 -64 -135 -80 0 -15 2 -14 109 35 54
25 106 45 115 45 26 0 30 26 18 126 -7 67 -17 103 -32 124 -42 58 -120 79
-206 55z m-144 -678 c14 -7 36 -29 49 -50 27 -41 46 -47 56 -17 9 28 50 54 76
47 11 -3 48 -1 81 4 70 11 92 7 105 -23 8 -18 18 -22 59 -23 27 0 57 -4 66 -9
12 -5 24 1 44 23 31 36 72 41 97 13 12 -13 16 -34 14 -74 -2 -34 2 -64 10 -74
18 -25 16 -58 -6 -85 -16 -20 -18 -35 -14 -89 5 -58 3 -67 -17 -85 -19 -17
-37 -20 -132 -21 -108 0 -112 -1 -147 -30 -53 -45 -68 -48 -95 -19 -19 20 -33
25 -72 25 -97 1 -118 -4 -142 -32 -48 -57 -147 -57 -191 -1 -24 30 -28 98 -7
126 8 10 12 27 9 37 -5 18 -12 19 -84 13 -81 -6 -109 3 -109 35 0 8 -11 25
-25 38 -30 28 -34 83 -7 107 21 19 107 40 132 32 10 -3 23 -19 29 -35 6 -19
17 -30 29 -30 29 0 34 11 15 33 -28 30 -24 99 7 132 14 15 34 31 45 35 30 13
97 11 125 -3z"/>
<path d="M1526 1779 c-22 -17 -26 -28 -24 -57 3 -34 30 -64 44 -49 4 4 2 19
-5 33 -10 22 -9 30 5 45 34 38 113 14 100 -29 -10 -32 -46 -29 -46 3 0 18 -5
25 -19 25 -28 0 -30 -8 -20 -68 4 -31 4 -63 -1 -77 -14 -37 9 -43 38 -10 19
23 26 25 33 14 5 -8 9 -17 9 -21 0 -3 14 -20 31 -37 22 -23 40 -31 65 -31 46
0 74 16 74 40 0 23 -18 25 -55 8 -22 -10 -30 -8 -52 8 -14 11 -34 35 -44 54
-18 33 -18 33 6 56 30 28 32 53 4 88 -17 22 -29 26 -68 26 -34 0 -56 -6 -75
-21z m94 -142 c0 -5 -4 -5 -10 -2 -5 3 -10 14 -10 23 0 15 2 15 10 2 5 -8 10
-19 10 -23z"/>
<path d="M1886 1761 c-12 -13 -14 -21 -6 -26 7 -4 10 -32 9 -73 -2 -57 0 -67
15 -70 10 -2 23 1 28 6 5 5 27 7 49 5 37 -5 53 7 29 22 -5 3 -10 24 -10 45 0
46 -15 59 -38 35 -13 -13 -14 -19 -4 -22 6 -3 12 -18 12 -34 0 -22 -5 -29 -19
-29 -22 0 -31 26 -31 97 0 59 -10 71 -34 44z"/>
<path d="M1957 1766 c-8 -20 20 -43 35 -28 14 14 3 42 -16 42 -7 0 -16 -6 -19
-14z"/>
<path d="M2233 1769 c-6 -6 -9 -17 -7 -23 2 -6 -9 -16 -25 -22 -27 -11 -29
-15 -28 -63 l1 -51 37 0 c21 0 41 -5 44 -10 10 -16 -25 -25 -46 -12 -10 7 -23
12 -29 12 -18 0 -11 -29 10 -40 27 -14 86 4 100 30 15 28 -14 53 -51 45 -38
-9 -37 8 1 22 32 12 40 39 18 62 -11 10 -9 14 5 22 14 8 16 14 6 25 -14 17
-21 18 -36 3z m3 -70 c8 -14 -18 -31 -30 -19 -9 9 0 30 14 30 5 0 12 -5 16
-11z"/>
<path d="M1812 1762 c-9 -6 -10 -21 -2 -63 6 -30 8 -66 4 -81 -5 -25 -3 -28
20 -28 27 0 43 15 26 25 -5 3 -10 30 -10 58 0 55 -8 97 -19 97 -3 0 -12 -4
-19 -8z"/>
<path d="M2048 1719 c-19 -11 -25 -39 -8 -39 13 0 13 -43 -1 -57 -16 -16 6
-26 38 -18 19 4 23 9 14 18 -17 17 -14 67 4 67 11 0 15 -12 15 -45 0 -50 8
-55 35 -25 14 16 16 23 7 32 -7 7 -12 25 -12 40 0 33 -24 47 -51 30 -9 -6 -19
-7 -21 -2 -2 5 -10 5 -20 -1z"/>
<path d="M1712 1698 c-27 -14 -38 -51 -24 -83 25 -56 102 -33 102 30 0 24 -7
39 -22 49 -26 18 -25 18 -56 4z m46 -57 c-3 -29 -25 -34 -41 -9 -8 12 -7 21 2
32 19 22 43 8 39 -23z"/>
<path d="M1348 1653 c-43 -5 -62 -24 -53 -53 4 -13 15 -20 32 -20 23 0 25 -3
20 -30 -7 -31 1 -38 20 -19 6 6 8 30 5 55 -3 29 -1 44 7 44 10 0 17 -47 13
-92 -1 -10 5 -18 14 -18 9 0 14 7 12 18 -2 11 2 18 7 18 6 -1 9 -9 8 -18 -3
-21 15 -24 23 -5 8 22 -14 67 -29 61 -10 -4 -17 5 -21 30 -4 20 -10 35 -14 34
-4 -1 -24 -3 -44 -5z m2 -38 c0 -8 -6 -15 -14 -15 -17 0 -28 14 -19 24 12 12
33 6 33 -9z"/>
<path d="M1481 1586 c-19 -23 -4 -56 25 -56 28 0 32 16 7 23 -17 4 -16 5 0 6
12 1 17 7 15 18 -4 23 -31 28 -47 9z"/>
<path d="M1581 1540 c-44 -10 -62 -38 -43 -66 4 -6 27 -22 52 -34 66 -33 80
-67 37 -94 -49 -33 -99 13 -52 47 29 21 25 37 -10 37 -32 0 -59 -41 -51 -75 7
-28 52 -55 91 -55 16 0 38 12 57 30 25 26 29 35 23 63 -9 41 -18 52 -58 68
-49 19 -59 29 -46 46 10 11 16 11 36 -3 30 -19 44 -8 32 24 -9 23 -15 25 -68
12z"/>
<path d="M2205 1521 c-44 -9 -48 -48 -6 -64 40 -15 40 -31 0 -22 -26 6 -30 4
-27 -12 4 -24 60 -30 82 -8 23 23 20 34 -14 53 -33 19 -42 39 -9 22 11 -7 23
-9 26 -7 7 7 -7 47 -15 46 -4 -1 -20 -4 -37 -8z"/>
<path d="M2076 1504 c-26 -25 -20 -81 9 -100 21 -14 31 -15 51 -5 35 16 25 36
-17 34 l-34 -2 33 10 c43 13 52 37 23 61 -28 22 -45 23 -65 2z m49 -24 c3 -5
-3 -10 -14 -10 -12 0 -21 5 -21 10 0 6 6 10 14 10 8 0 18 -4 21 -10z"/>
<path d="M1924 1489 c-10 -11 -12 -19 -5 -24 6 -3 11 -35 11 -71 0 -35 4 -64
8 -64 15 0 44 38 37 49 -4 7 3 11 17 11 13 0 29 5 36 12 14 14 16 67 2 88 -13
21 -87 20 -106 -1z m81 -39 c0 -14 -8 -26 -22 -31 -20 -7 -23 -5 -23 14 0 26
19 49 35 44 5 -2 10 -14 10 -27z"/>
<path d="M1715 1475 c-28 -27 -29 -33 -16 -68 16 -42 91 -48 91 -8 0 14 -6 17
-30 13 -21 -3 -32 0 -36 12 -9 25 14 48 36 36 26 -14 38 9 15 27 -26 18 -32
17 -60 -12z"/>
<path d="M1811 1481 c-27 -50 -3 -105 44 -99 69 8 68 109 -2 116 -23 2 -34 -2
-42 -17z m63 -26 c8 -22 -4 -46 -23 -43 -9 2 -17 15 -19 31 -3 21 1 27 16 27
11 0 22 -7 26 -15z"/>
<path d="M2619 2439 c-52 -39 -93 -76 -91 -82 6 -21 57 -87 68 -87 27 0 33 26
14 55 -14 21 -16 33 -8 42 14 17 28 16 42 -2 10 -14 14 -14 31 -1 17 12 17 16
5 30 -11 15 -11 19 4 34 15 15 18 15 26 2 27 -46 34 -51 54 -37 19 14 19 16
-13 66 -18 28 -34 51 -35 51 -2 0 -45 -32 -97 -71z"/>
<path d="M605 2449 c-48 -67 -50 -75 -27 -88 16 -9 23 -7 34 11 14 21 15 21
91 -37 43 -32 79 -56 80 -54 2 2 8 11 15 20 11 14 2 24 -63 73 -41 31 -75 60
-75 64 0 5 5 13 12 20 8 8 8 15 -2 27 -19 23 -25 19 -65 -36z"/>
<path d="M512 2295 c-11 -23 -9 -27 21 -45 17 -11 36 -21 41 -23 5 -2 7 -11 3
-21 -6 -16 -10 -16 -48 6 -40 22 -41 22 -55 3 -8 -10 -14 -22 -14 -26 0 -4 46
-33 103 -63 92 -50 103 -54 115 -39 19 26 15 38 -23 56 -19 9 -35 23 -35 32 0
20 19 19 57 -5 32 -19 33 -19 43 0 5 10 10 23 10 28 0 8 -191 122 -204 122 -1
0 -8 -11 -14 -25z"/>
<path d="M2621 2246 c-16 -19 -6 -36 20 -36 15 0 20 6 17 22 -4 27 -21 33 -37
14z"/>
<path d="M2697 2188 c-34 -34 -35 -77 -4 -106 32 -30 66 -28 153 12 72 34 83
46 65 76 -8 12 -23 8 -92 -23 -84 -38 -112 -38 -88 1 9 15 10 27 3 43 l-11 23
-26 -26z"/>
<path d="M1179 2166 c-37 -13 -91 -37 -120 -54 -63 -35 -150 -65 -234 -81 -41
-8 -79 -24 -127 -56 -58 -38 -80 -47 -140 -55 -39 -4 -77 -15 -84 -22 -12 -12
-5 -14 48 -14 35 1 84 -6 110 -14 47 -14 48 -14 92 18 53 38 90 54 111 45 22
-8 15 -53 -10 -67 -10 -6 -41 -26 -68 -43 -59 -40 -92 -41 -157 -8 -84 42
-137 31 -230 -49 -67 -58 -113 -83 -182 -97 -42 -10 -49 -13 -33 -20 34 -13
134 -10 172 6 20 9 60 34 88 55 61 47 109 53 165 18 82 -50 92 -50 145 -12 51
36 74 41 106 24 60 -33 -40 -130 -134 -130 -23 0 -51 12 -90 40 -93 67 -121
64 -228 -23 -74 -60 -103 -73 -181 -80 -66 -6 -117 -22 -151 -48 -15 -12 -10
-14 40 -10 31 2 90 -2 130 -9 l73 -13 78 52 c120 78 169 85 208 27 36 -56 -3
-79 -176 -105 -74 -11 -146 -24 -160 -30 -22 -9 -20 -10 20 -11 25 0 76 -7
115 -15 133 -28 157 -22 280 75 83 66 125 90 158 90 57 0 54 -90 -6 -137 -15
-11 -49 -23 -80 -26 -30 -4 -99 -23 -153 -43 -54 -19 -126 -39 -159 -43 -55
-6 -58 -8 -37 -19 47 -27 113 -26 201 2 72 23 93 25 160 20 l77 -7 73 61 c85
72 109 82 128 56 23 -32 12 -66 -32 -96 -69 -49 -88 -56 -177 -67 -73 -8 -168
-40 -168 -55 0 -2 17 -2 38 1 23 3 59 -3 96 -16 100 -35 130 -30 218 40 27 21
69 43 98 50 45 11 50 16 45 34 -13 43 -17 184 -7 231 6 27 30 146 53 264 22
118 51 254 64 303 16 60 20 87 12 87 -7 0 -42 -11 -78 -24z"/>
<path d="M1917 2106 c-67 -46 -137 -105 -137 -116 0 -10 158 108 180 134 18
22 11 20 -43 -18z"/>
<path d="M1968 2061 c-90 -46 -116 -68 -127 -108 -6 -20 -9 -39 -6 -41 2 -2
35 13 73 33 74 39 145 94 162 126 9 17 7 19 -17 19 -15 0 -54 -13 -85 -29z"/>
<path d="M2862 2024 c-14 -9 -22 -26 -22 -44 0 -41 -10 -60 -30 -60 -28 0 -34
19 -15 40 16 18 13 60 -5 60 -25 0 -54 -40 -54 -73 0 -49 27 -77 74 -77 46 0
70 24 77 79 4 25 11 41 19 41 16 0 19 -31 4 -46 -6 -6 -7 -20 -2 -33 l8 -22
27 21 c19 15 27 31 27 54 0 66 -55 97 -108 60z"/>
<path d="M2883 1338 c-25 -19 -69 -37 -114 -48 -68 -15 -74 -19 -93 -55 -31
-61 -33 -124 -3 -188 39 -86 107 -128 207 -128 137 -1 240 98 240 231 0 97
-40 158 -130 199 -56 26 -56 26 -107 -11z"/>
<path d="M295 1225 c12 -50 70 -196 108 -271 93 -186 268 -393 436 -519 97
-73 281 -171 391 -208 152 -52 271 -71 450 -71 183 0 277 14 433 65 298 97
569 301 746 562 29 43 30 47 12 47 -13 0 -40 -26 -77 -72 -190 -243 -413 -405
-677 -493 -263 -87 -510 -97 -773 -30 -321 81 -612 287 -805 567 -64 93 -142
244 -178 345 -13 33 -34 72 -48 85 l-25 23 7 -30z"/>
<path d="M2335 1208 c-93 -15 -174 -33 -181 -40 -41 -45 -44 -145 -6 -219 85
-168 320 -169 414 -1 51 89 36 206 -34 268 l-23 21 -170 -29z"/>
<path d="M1150 1192 c-76 -41 -127 -143 -117 -234 15 -124 108 -208 232 -208
95 0 172 48 218 135 28 54 29 146 2 200 l-20 40 -100 5 c-106 6 -132 15 -162
55 l-18 25 -35 -18z"/>
<path d="M1845 1148 c-204 -18 -208 -19 -228 -58 -28 -54 -20 -164 15 -218 36
-53 102 -92 170 -99 95 -10 196 52 234 143 38 90 -8 247 -70 243 -12 -1 -66
-6 -121 -11z"/>
<path d="M918 1085 c-3 -3 -24 -9 -47 -13 l-42 -7 43 -60 43 -60 6 50 c4 28 9
61 13 73 7 20 -3 30 -16 17z"/>
<path d="M725 935 c-72 -53 -114 -61 -86 -16 12 18 -4 51 -24 51 -19 0 -35
-31 -35 -68 0 -34 36 -72 70 -72 23 0 180 96 180 109 -1 11 -27 41 -36 40 -5
0 -36 -20 -69 -44z"/>
<path d="M757 811 c-69 -66 -71 -71 -55 -87 17 -17 19 -17 46 9 32 31 44 33
62 12 11 -13 8 -21 -20 -51 -32 -32 -33 -35 -18 -51 16 -15 21 -12 80 42 80
74 94 97 78 135 -14 33 -50 60 -80 60 -11 0 -51 -30 -93 -69z m121 -15 c6 -30
-15 -42 -38 -21 -15 14 -17 21 -8 32 15 18 42 12 46 -11z"/>
<path d="M2055 831 c-9 -29 -91 -100 -143 -124 -35 -16 -66 -22 -122 -22 -94
1 -172 35 -226 100 l-36 43 -67 -68 c-48 -49 -78 -71 -110 -81 l-44 -13 34
-14 c132 -55 348 -76 505 -48 108 18 235 63 319 110 l59 34 -36 15 c-20 8 -54
31 -76 51 -46 42 -49 42 -57 17z"/>
<path d="M974 733 c-9 -21 -29 -69 -45 -107 -33 -77 -35 -89 -15 -105 11 -9
34 6 110 70 53 45 96 83 96 85 0 2 -9 8 -21 15 -18 9 -26 6 -53 -18 -17 -16
-40 -36 -50 -44 -22 -16 -23 -23 13 68 21 53 21 53 0 63 -17 10 -21 7 -35 -27z"/>
<path d="M2211 645 c-67 -43 -65 -40 -51 -64 10 -19 12 -20 34 -6 23 15 24 14
72 -70 27 -47 53 -84 58 -82 31 10 27 35 -19 112 l-46 79 21 16 c14 10 19 22
14 33 -9 24 -22 21 -83 -18z"/>
<path d="M1132 618 c-17 -22 -82 -157 -82 -172 0 -11 20 -26 36 -26 2 0 13 18
24 40 23 44 23 44 51 30 19 -11 19 -11 -1 -50 -24 -48 -24 -47 0 -60 18 -9 23
-3 58 67 56 112 57 116 26 152 -20 25 -34 31 -64 31 -21 0 -42 -6 -48 -12z
m76 -50 c7 -7 8 -17 1 -29 -8 -15 -13 -17 -34 -7 -20 9 -22 14 -14 29 11 22
30 24 47 7z"/>
<path d="M2030 563 c-25 -8 -47 -17 -49 -19 -2 -2 15 -55 38 -118 37 -99 45
-113 62 -109 29 8 31 18 14 59 -14 33 -14 39 -1 46 51 28 68 78 39 115 -27 37
-52 43 -103 26z m65 -68 c0 -30 -39 -27 -43 3 -3 20 0 23 20 20 15 -2 23 -10
23 -23z"/>
<path d="M1316 538 c-27 -38 -20 -73 21 -107 31 -26 36 -34 27 -49 -16 -25
-37 -21 -44 8 -4 16 -14 26 -28 28 -18 3 -22 -1 -22 -23 0 -39 16 -62 51 -74
52 -18 98 18 99 75 0 24 -9 40 -35 63 -40 34 -44 51 -15 51 13 0 20 -7 20 -20
0 -11 4 -20 9 -20 5 0 16 -3 25 -6 26 -10 21 51 -6 76 -30 28 -82 27 -102 -2z"/>
<path d="M1908 533 c-22 -6 -22 4 3 -130 20 -107 23 -113 45 -113 30 0 30 8 4
142 -11 57 -20 104 -20 106 0 2 -9 1 -32 -5z"/>
<path d="M1520 502 c-32 -26 -51 -159 -27 -195 32 -49 118 -43 137 9 12 30 13
29 -18 38 -15 5 -24 3 -28 -8 -7 -20 -43 -21 -50 -3 -3 8 -1 36 3 63 7 41 12
50 31 52 17 3 25 -2 29 -17 3 -14 13 -21 29 -21 27 0 31 18 12 53 -25 49 -78
61 -118 29z"/>
<path d="M1688 503 c-2 -5 1 -60 7 -123 9 -105 12 -115 30 -115 16 0 21 8 25
45 l5 45 25 -42 c18 -30 32 -43 48 -43 27 0 28 10 2 59 -17 34 -17 41 -5 57
19 25 19 89 -1 108 -16 17 -129 23 -136 9z m97 -49 c12 -12 13 -19 4 -30 -19
-23 -49 -17 -49 9 0 39 18 48 45 21z"/>
</g>
</svg>
